<mxfile host="drawio-plugin" modified="2022-01-16T07:08:04.325Z" agent="5.0 (Macintosh; Intel Mac OS X 10_16_0) AppleWebKit/537.36 (KHTML, like Gecko) Chrome/84.0.4147.105 Safari/537.36" etag="TSTFPMrageEogM91qV3A" version="14.7.4" type="embed" pages="3"><diagram id="23iRSUPoRavnBvh4doch" name="加锁"><mxGraphModel dx="1048" dy="633" grid="1" gridSize="10" guides="1" tooltips="1" connect="1" arrows="1" fold="1" page="1" pageScale="1" pageWidth="827" pageHeight="1169" math="0" shadow="0"><root><mxCell id="0"/><mxCell id="1" parent="0"/></root></mxGraphModel></diagram><diagram id="6CMqKugeyraNuRurFl2X" name="释放锁"><mxGraphModel dx="1048" dy="633" grid="1" gridSize="10" guides="1" tooltips="1" connect="1" arrows="1" fold="1" page="1" pageScale="1" pageWidth="850" pageHeight="1100" math="0" shadow="0"><root><mxCell id="gdAXH48Urp08_yP0AFHO-0"/><mxCell id="gdAXH48Urp08_yP0AFHO-1" parent="gdAXH48Urp08_yP0AFHO-0"/></root></mxGraphModel></diagram><diagram id="BJ4hWqZMS0Q0PIfR92i_" name="锁续期"><mxGraphModel dx="1048" dy="633" grid="1" gridSize="10" guides="1" tooltips="1" connect="1" arrows="1" fold="1" page="1" pageScale="1" pageWidth="850" pageHeight="1100" math="0" shadow="0"><root><mxCell id="fuzAO7b9oG7WfLTY1tQ2-0"/><mxCell id="fuzAO7b9oG7WfLTY1tQ2-1" parent="fuzAO7b9oG7WfLTY1tQ2-0"/></root></mxGraphModel></diagram></mxfile>